<svg xmlns="http://www.w3.org/2000/svg" viewBox="0 0 512 512">
  <rect width="512" height="512" rx="96" fill="#0f0f1a"/>
  <!-- Plate -->
  <circle cx="256" cy="272" r="140" fill="none" stroke="#222240" stroke-width="12"/>
  <circle cx="256" cy="272" r="100" fill="none" stroke="#333355" stroke-width="4"/>
  <!-- Fork -->
  <g transform="translate(160, 120) rotate(15, 40, 100)">
    <rect x="36" y="60" width="8" height="120" rx="4" fill="#e94560"/>
    <rect x="24" y="20" width="4" height="50" rx="2" fill="#e94560"/>
    <rect x="34" y="20" width="4" height="50" rx="2" fill="#e94560"/>
    <rect x="44" y="20" width="4" height="50" rx="2" fill="#e94560"/>
    <rect x="54" y="20" width="4" height="50" rx="2" fill="#e94560"/>
  </g>
  <!-- Knife -->
  <g transform="translate(290, 120) rotate(-15, 30, 100)">
    <rect x="28" y="60" width="8" height="120" rx="4" fill="#e94560"/>
    <path d="M28 20 Q32 10 36 20 L36 65 L28 65 Z" fill="#e94560"/>
  </g>
  <!-- Heart accent -->
  <path d="M256 180 C256 170 244 155 232 155 C216 155 210 170 210 180 C210 200 256 230 256 230 C256 230 302 200 302 180 C302 170 296 155 280 155 C268 155 256 170 256 180Z" fill="#e94560" opacity="0.9"/>
</svg>
